<svg xmlns="http://www.w3.org/2000/svg" viewBox="0 0 256 256" role="img" aria-labelledby="title desc">
  <title id="title">Still On</title>
  <desc id="desc">A continuous S-shaped connection with an illuminated online status point.</desc>
  <defs>
    <linearGradient id="bg" x1="28" y1="20" x2="228" y2="236" gradientUnits="userSpaceOnUse">
      <stop stop-color="#14233D"/>
      <stop offset="1" stop-color="#08111F"/>
    </linearGradient>
    <linearGradient id="signal" x1="66" y1="54" x2="190" y2="208" gradientUnits="userSpaceOnUse">
      <stop stop-color="#D8F5FF"/>
      <stop offset=".5" stop-color="#8DD8FF"/>
      <stop offset="1" stop-color="#60A5FA"/>
    </linearGradient>
    <filter id="glow" x="-100%" y="-100%" width="300%" height="300%">
      <feGaussianBlur stdDeviation="5"/>
    </filter>
  </defs>
  <rect x="8" y="8" width="240" height="240" rx="60" fill="url(#bg)"/>
  <path
    d="M176 69c-16-19-38-26-61-21-27 6-45 26-41 46 4 19 22 29 46 33l25 4c29 4 46 16 47 36 1 23-22 40-51 41-27 1-52-11-66-32"
    fill="none"
    stroke="url(#signal)"
    stroke-width="22"
    stroke-linecap="round"
    stroke-linejoin="round"
  />
  <circle cx="176" cy="69" r="16" fill="#66D9FF" opacity=".24" filter="url(#glow)"/>
  <circle cx="176" cy="69" r="8" fill="#C9F3FF"/>
  <circle cx="176" cy="69" r="3" fill="#FFFFFF"/>
</svg>
